<?xml version="1.0" encoding="UTF-8" standalone="no"?>
<!DOCTYPE svg PUBLIC "-//W3C//DTD SVG 1.1//EN" "http://www.w3.org/Graphics/SVG/1.1/DTD/svg11.dtd">
<svg width="100%" height="100%" viewBox="0 0 128 128" version="1.1" xmlns="http://www.w3.org/2000/svg" xmlns:xlink="http://www.w3.org/1999/xlink" xml:space="preserve" xmlns:serif="http://www.serif.com/" style="fill-rule:evenodd;clip-rule:evenodd;stroke-linejoin:round;stroke-miterlimit:2;">
    <g transform="matrix(1,0,0,1,0.420684,2.47289)">
        <path d="M100.86,61.414C101.213,56.429 101.533,49.645 101.613,45.183C101.62,44.774 101.632,42.55 101.628,42.152C101.619,41.156 101.594,44.014 101.552,43.065C101.485,41.546 101.217,36.287 101.043,34.91C100.501,30.625 100.489,28.125 95.87,23.875C91.251,19.625 81.565,17.639 79.672,17.164C79.462,17.111 79.254,17.062 79.049,17.016C74.539,16.009 71.369,16.648 71.369,16.648C71.369,16.648 71.367,16.646 71.364,16.644C71.361,16.642 71.357,16.638 71.352,16.633C71.35,16.631 71.348,16.629 71.345,16.628C71.341,16.624 71.336,16.621 71.331,16.616C71.326,16.612 71.321,16.608 71.316,16.604C71.311,16.6 71.306,16.597 71.301,16.593C71.294,16.588 71.286,16.582 71.277,16.576C71.271,16.572 71.265,16.568 71.259,16.564C71.248,16.557 71.238,16.549 71.225,16.541C71.221,16.538 71.216,16.535 71.212,16.533C71.142,16.488 71.045,16.431 70.914,16.364C70.911,16.363 70.909,16.361 70.906,16.36C70.874,16.344 70.84,16.327 70.805,16.31C70.799,16.307 70.794,16.305 70.788,16.302C70.752,16.285 70.714,16.267 70.674,16.249C70.669,16.246 70.663,16.244 70.657,16.241C70.386,16.119 70.019,15.976 69.53,15.82C69.529,15.82 69.528,15.82 69.528,15.819C69.448,15.793 69.364,15.768 69.277,15.741C69.273,15.74 69.268,15.738 69.264,15.737C69.177,15.711 69.086,15.684 68.992,15.658C68.99,15.657 68.988,15.657 68.986,15.656C68.41,15.492 67.702,15.319 66.834,15.144C66.817,15.141 66.801,15.137 66.784,15.134C66.652,15.108 66.516,15.081 66.377,15.055C66.356,15.051 66.335,15.047 66.313,15.043C66.171,15.016 66.027,14.99 65.877,14.963C65.863,14.96 65.848,14.958 65.834,14.955C65.184,14.84 64.461,14.725 63.656,14.613C63.648,14.612 63.64,14.611 63.631,14.609C62.629,14.47 61.504,14.336 60.235,14.212C50.576,13.265 39.174,20.708 35.552,23.009C31.93,25.31 31.134,27.89 31.134,27.89C31.134,27.89 28.784,28.366 26.369,31.749C24.537,34.316 26.137,56.141 27.016,66.533L26.37,93.001C26.37,93.011 26.372,93.021 26.372,93.031L26.37,93.108C26.313,95.463 27.993,98.196 30.105,99.241L45.642,106.949C47.754,107.994 51.41,108.925 53.766,108.925L74.234,108.925C76.59,108.925 80.246,107.996 82.358,106.952L97.895,99.22C100.007,98.175 101.688,95.379 101.63,93.024L100.86,61.414ZM95.153,93.882L79.684,101.58C78.343,102.243 75.586,102.925 74.234,102.925L53.766,102.925C52.415,102.925 49.658,102.242 48.302,101.571L32.771,93.865C32.671,93.781 32.427,93.392 32.37,93.16L33.35,52.894C33.467,52.528 33.584,52.16 33.673,51.77C34.726,47.201 35.25,41.401 35.25,41.401C35.25,41.401 39.224,40.84 45.582,43.063C51.939,45.286 57.222,48.879 57.222,48.879C57.222,48.879 55.521,52.402 57.222,53.667C58.28,54.454 61.472,54.652 63.959,55.276C64.002,55.287 64.044,55.298 64.087,55.309C64.158,55.327 64.229,55.346 64.299,55.366C64.344,55.379 64.389,55.391 64.434,55.404C64.501,55.423 64.567,55.443 64.633,55.463C64.676,55.476 64.719,55.489 64.761,55.503C64.835,55.526 64.907,55.551 64.978,55.575C65.009,55.586 65.041,55.596 65.072,55.607C65.171,55.642 65.268,55.679 65.362,55.717C65.389,55.728 65.415,55.74 65.441,55.751C65.509,55.779 65.576,55.808 65.641,55.838C65.674,55.853 65.706,55.869 65.739,55.885C65.796,55.913 65.852,55.941 65.907,55.97C65.938,55.986 65.969,56.003 66,56.02C66.057,56.052 66.112,56.085 66.166,56.119C66.189,56.133 66.213,56.147 66.236,56.162C66.31,56.211 66.381,56.261 66.447,56.313C66.459,56.322 66.469,56.333 66.481,56.342C66.535,56.386 66.586,56.43 66.634,56.476C66.654,56.495 66.672,56.515 66.691,56.534C66.729,56.573 66.765,56.612 66.798,56.653C66.816,56.675 66.834,56.696 66.85,56.719C66.882,56.761 66.912,56.805 66.939,56.85C66.952,56.87 66.965,56.89 66.977,56.911C67.014,56.976 67.047,57.043 67.074,57.113C67.107,57.198 67.128,57.284 67.143,57.371C67.148,57.399 67.149,57.428 67.152,57.456C67.158,57.516 67.162,57.576 67.161,57.637C67.16,57.67 67.157,57.704 67.154,57.738C67.149,57.796 67.141,57.854 67.13,57.913C67.123,57.947 67.117,57.982 67.108,58.016C67.093,58.078 67.073,58.14 67.051,58.203C67.04,58.234 67.031,58.264 67.019,58.295C66.986,58.379 66.948,58.464 66.904,58.549C66.899,58.558 66.896,58.567 66.891,58.576C66.842,58.67 66.786,58.765 66.725,58.86C66.706,58.889 66.685,58.919 66.665,58.948C66.621,59.014 66.575,59.08 66.526,59.146C66.5,59.181 66.473,59.216 66.446,59.25C66.398,59.312 66.348,59.374 66.296,59.436C66.267,59.471 66.238,59.505 66.207,59.54C66.15,59.605 66.091,59.67 66.031,59.734C66.003,59.764 65.976,59.793 65.948,59.823C65.866,59.908 65.782,59.992 65.695,60.076C65.687,60.084 65.679,60.093 65.67,60.101C65.572,60.195 65.47,60.289 65.367,60.382C65.344,60.402 65.321,60.422 65.298,60.442C65.217,60.513 65.136,60.584 65.053,60.654C65.022,60.68 64.99,60.707 64.958,60.733C64.88,60.798 64.802,60.862 64.723,60.925C64.692,60.95 64.661,60.975 64.629,61C64.544,61.067 64.459,61.133 64.374,61.198C64.35,61.216 64.326,61.235 64.302,61.253C64.076,61.424 63.849,61.589 63.627,61.744C62.39,62.61 61.304,63.202 61.304,63.202C61.304,63.202 62.196,63.176 63.627,62.934L63.629,62.934C63.983,62.874 64.368,62.801 64.782,62.711C64.796,62.708 64.81,62.705 64.824,62.702C64.941,62.676 65.061,62.65 65.182,62.621C65.217,62.613 65.253,62.604 65.288,62.596C65.391,62.572 65.495,62.547 65.601,62.52C65.645,62.509 65.69,62.498 65.735,62.486C65.834,62.461 65.934,62.435 66.035,62.408C66.085,62.395 66.136,62.381 66.187,62.367C66.288,62.34 66.39,62.311 66.493,62.282C66.543,62.268 66.593,62.254 66.644,62.239C66.757,62.206 66.871,62.172 66.986,62.137C67.028,62.124 67.069,62.112 67.111,62.099C67.269,62.05 67.429,61.999 67.591,61.945C67.594,61.944 67.597,61.943 67.601,61.942C67.757,61.89 67.915,61.836 68.074,61.78C68.128,61.761 68.184,61.74 68.238,61.721C68.347,61.682 68.456,61.642 68.566,61.601C68.632,61.576 68.699,61.551 68.765,61.525C68.866,61.486 68.968,61.447 69.07,61.406C69.14,61.378 69.21,61.35 69.28,61.321C69.381,61.28 69.482,61.238 69.584,61.195C69.655,61.165 69.726,61.135 69.797,61.104C69.901,61.059 70.005,61.012 70.11,60.965C70.179,60.934 70.248,60.903 70.318,60.871C70.431,60.819 70.545,60.765 70.659,60.71C70.72,60.681 70.78,60.653 70.841,60.623C71.009,60.541 71.177,60.457 71.345,60.37C71.352,60.366 71.359,60.363 71.366,60.36C72.674,59.683 73.194,58.744 73.238,57.717C73.37,54.634 69.22,50.752 69.22,50.752C69.22,50.752 72.029,50.442 75.323,49.794C75.67,49.726 76.022,49.654 76.377,49.578C78.328,49.161 80.361,48.629 82.023,47.977C83.534,47.384 85.229,46.589 86.844,45.775C87.167,45.612 87.488,45.451 87.802,45.286C89.214,44.545 91.123,42.455 91.123,42.455C91.123,42.455 91.772,42.693 91.77,43.673C91.766,45.511 93.62,48.626 94.097,51.092C94.192,51.585 94.304,52.054 94.433,52.485C94.501,52.711 94.575,52.924 94.654,53.127L95.628,93.085C95.576,93.319 95.334,93.724 95.153,93.882Z" style="fill:rgb(68,140,117);fill-rule:nonzero;"/>
        <path d="M43.149,67.899L58.613,70.023L58.613,65.888L43.149,63.764L43.149,67.899Z" style="fill:rgb(68,140,117);fill-rule:nonzero;"/>
        <path d="M69.387,70.023L84.851,67.899L84.851,63.764L69.387,65.888L69.387,70.023Z" style="fill:rgb(68,140,117);fill-rule:nonzero;"/>
    </g>
</svg>
